<svg width="48" height="32" viewBox="0 0 48 32" fill="none" xmlns="http://www.w3.org/2000/svg">
  <rect width="48" height="32" rx="4" fill="#2E77BB"/>
  <path d="M10.5 13.5h27v5h-27v-5z" fill="white" opacity="0.2"/>
  <path d="M13.228 19.5h1.204l.72-1.764h1.604l.72 1.764h2.376v-1.344l.212 1.344h1.224l.212-1.356v1.356h5.856l.712-.848.668.848h1.992l-2.2-2.748 2.2-2.752h-1.96l-.696.852-.64-.852h-6.388l-.496 1.18-.508-1.18h-2.184v1.268l-.244-1.268h-1.868l-1.516 3.74v-3.74h-1.832l-.72 1.764h-1.604l-.72-1.764H7.5v7h1.728v-1.5zm18.984-1.312h-.896v-1.088h.904c.252 0 .428.008.54.1.104.084.164.212.164.376 0 .168-.06.3-.168.388-.116.092-.292.124-.548.124v.1z" fill="white"/>
</svg>