<svg width="48" height="32" viewBox="0 0 48 32" fill="none" xmlns="http://www.w3.org/2000/svg">
  <rect width="48" height="32" rx="4" fill="#F5F5F5"/>
  <path d="M30.445 11.833c.186 1.21-.002 2.565-.563 3.717-.743 1.525-2.097 2.355-3.848 2.355h-.227a.826.826 0 00-.815.697l-.005.027-.346 2.19-.003.019a.413.413 0 01-.408.349h-1.923c-.215 0-.368-.202-.32-.408l1.486-9.408a.826.826 0 01.815-.696h2.44c2.447 0 3.532 1.097 3.717 3.158z" fill="#139AD6"/>
  <path d="M18.938 11.264a.826.826 0 01.815-.697h5.113c.606 0 1.172.04 1.687.122a5.18 5.18 0 01.545.112c.167.043.325.091.473.146a3.9 3.9 0 011.098.573c.244-1.553-.002-2.61-1.348-3.569-1.486-1.057-4.165-1.284-6.042-1.284h-5.606a.826.826 0 00-.815.696L12.002 25.45c-.047.298.184.567.489.567h3.564l.895-5.668.028-.178a.826.826 0 01.815-.697h.17c3.334 0 5.942-1.352 6.702-5.264.022-.117.042-.231.06-.343.218-1.321.002-2.223-.709-3.037-.78-.893-2.175-1.285-3.853-1.285h-.23c-.381 0-.714.262-.798.63l-.478 3.031a.42.42 0 00.415.487h1.476l.38-2.428z" fill="#263B80"/>
</svg>