<svg width="48" height="32" viewBox="0 0 48 32" fill="none" xmlns="http://www.w3.org/2000/svg">
  <rect width="48" height="32" rx="4" fill="#1A1F71"/>
  <path d="M20.757 21.892l1.918-11.866h3.067l-1.918 11.866h-3.067zm11.917-11.622l-1.943 8.174-.228-1.163v.002l-.691-3.562s-.083-1.695-2.003-1.695h-4.62l-.046.156s1.414.294 3.07 1.29l2.55 9.621h3.038l4.642-12.823h-3.77zm-15.236 0l-.047.155s1.73.33 3.395 1.027l2.15 8.224s.23.918 1.078.918h3.865l5.96-11.324h-3.785l-3.736 7.72-.158-.81-1.387-6.91s-.154-1-1.533-1h-5.802zm25.64 11.86h2.856l-2.492-11.86h-2.61c-1.206 0-1.504.945-1.504.945l-4.855 11.67h3.39l.675-1.863h4.14l.399 1.863zm-3.585-4.418l1.707-4.704.982 4.704h-2.689z" fill="white"/>
</svg>